<svg width="24" height="24" viewBox="0 0 24 24" fill="none" xmlns="http://www.w3.org/2000/svg">
<path fill-rule="evenodd" clip-rule="evenodd" d="M14.9021 16.316C13.5478 17.3687 11.846 17.9956 9.99782 17.9956C5.58074 17.9956 2 14.4149 2 9.99782C2 5.58074 5.58074 2 9.99782 2C14.4149 2 17.9956 5.58074 17.9956 9.99782C17.9956 11.846 17.3687 13.5478 16.316 14.9021L22 20.5862L20.5862 22L14.9021 16.316ZM15.9962 9.99782C15.9962 13.3106 13.3106 15.9962 9.99782 15.9962C6.68501 15.9962 3.99945 13.3106 3.99945 9.99782C3.99945 6.68501 6.68501 3.99945 9.99782 3.99945C13.3106 3.99945 15.9962 6.68501 15.9962 9.99782Z" fill="#757D8A"/>
</svg>
